<?xml version="1.0" encoding="UTF-8" standalone="no"?>
<!-- Created with Inkscape (http://www.inkscape.org/) -->

<svg
   xmlns:dc="http://purl.org/dc/elements/1.1/"
   xmlns:cc="http://creativecommons.org/ns#"
   xmlns:rdf="http://www.w3.org/1999/02/22-rdf-syntax-ns#"
   xmlns:svg="http://www.w3.org/2000/svg"
   xmlns="http://www.w3.org/2000/svg"
   xmlns:sodipodi="http://sodipodi.sourceforge.net/DTD/sodipodi-0.dtd"
   xmlns:inkscape="http://www.inkscape.org/namespaces/inkscape"
   id="svg2"
   version="1.1"
   inkscape:version="0.47 r22583"
   width="116"
   height="115"
   sodipodi:docname="00-Taschdid.svg">
  <metadata
     id="metadata8">
    <rdf:RDF>
      <cc:Work
         rdf:about="">
        <dc:format>image/svg+xml</dc:format>
        <dc:type
           rdf:resource="http://purl.org/dc/dcmitype/StillImage" />
        <dc:title></dc:title>
      </cc:Work>
    </rdf:RDF>
  </metadata>
  <defs
     id="defs6">
    <inkscape:perspective
       sodipodi:type="inkscape:persp3d"
       inkscape:vp_x="0 : 0.5 : 1"
       inkscape:vp_y="0 : 1000 : 0"
       inkscape:vp_z="1 : 0.5 : 1"
       inkscape:persp3d-origin="0.5 : 0.33333333 : 1"
       id="perspective10" />
    <inkscape:perspective
       id="perspective3687"
       inkscape:persp3d-origin="0.5 : 0.33333333 : 1"
       inkscape:vp_z="1 : 0.5 : 1"
       inkscape:vp_y="0 : 1000 : 0"
       inkscape:vp_x="0 : 0.5 : 1"
       sodipodi:type="inkscape:persp3d" />
    <inkscape:perspective
       id="perspective3687-3"
       inkscape:persp3d-origin="0.5 : 0.33333333 : 1"
       inkscape:vp_z="1 : 0.5 : 1"
       inkscape:vp_y="0 : 1000 : 0"
       inkscape:vp_x="0 : 0.5 : 1"
       sodipodi:type="inkscape:persp3d" />
    <inkscape:perspective
       id="perspective3687-0"
       inkscape:persp3d-origin="0.5 : 0.33333333 : 1"
       inkscape:vp_z="1 : 0.5 : 1"
       inkscape:vp_y="0 : 1000 : 0"
       inkscape:vp_x="0 : 0.5 : 1"
       sodipodi:type="inkscape:persp3d" />
    <inkscape:perspective
       id="perspective3687-02"
       inkscape:persp3d-origin="0.5 : 0.33333333 : 1"
       inkscape:vp_z="1 : 0.5 : 1"
       inkscape:vp_y="0 : 1000 : 0"
       inkscape:vp_x="0 : 0.5 : 1"
       sodipodi:type="inkscape:persp3d" />
    <inkscape:perspective
       id="perspective3687-9"
       inkscape:persp3d-origin="0.5 : 0.33333333 : 1"
       inkscape:vp_z="1 : 0.5 : 1"
       inkscape:vp_y="0 : 1000 : 0"
       inkscape:vp_x="0 : 0.5 : 1"
       sodipodi:type="inkscape:persp3d" />
    <inkscape:perspective
       id="perspective3687-90"
       inkscape:persp3d-origin="0.5 : 0.33333333 : 1"
       inkscape:vp_z="1 : 0.5 : 1"
       inkscape:vp_y="0 : 1000 : 0"
       inkscape:vp_x="0 : 0.5 : 1"
       sodipodi:type="inkscape:persp3d" />
    <inkscape:perspective
       id="perspective3687-01"
       inkscape:persp3d-origin="0.5 : 0.33333333 : 1"
       inkscape:vp_z="1 : 0.5 : 1"
       inkscape:vp_y="0 : 1000 : 0"
       inkscape:vp_x="0 : 0.5 : 1"
       sodipodi:type="inkscape:persp3d" />
    <inkscape:perspective
       id="perspective3687-7"
       inkscape:persp3d-origin="0.5 : 0.33333333 : 1"
       inkscape:vp_z="1 : 0.5 : 1"
       inkscape:vp_y="0 : 1000 : 0"
       inkscape:vp_x="0 : 0.5 : 1"
       sodipodi:type="inkscape:persp3d" />
    <inkscape:perspective
       id="perspective3687-04"
       inkscape:persp3d-origin="0.5 : 0.33333333 : 1"
       inkscape:vp_z="1 : 0.5 : 1"
       inkscape:vp_y="0 : 1000 : 0"
       inkscape:vp_x="0 : 0.5 : 1"
       sodipodi:type="inkscape:persp3d" />
    <inkscape:perspective
       id="perspective3687-4"
       inkscape:persp3d-origin="0.5 : 0.33333333 : 1"
       inkscape:vp_z="1 : 0.5 : 1"
       inkscape:vp_y="0 : 1000 : 0"
       inkscape:vp_x="0 : 0.5 : 1"
       sodipodi:type="inkscape:persp3d" />
    <inkscape:perspective
       id="perspective3687-1"
       inkscape:persp3d-origin="0.5 : 0.33333333 : 1"
       inkscape:vp_z="1 : 0.5 : 1"
       inkscape:vp_y="0 : 1000 : 0"
       inkscape:vp_x="0 : 0.5 : 1"
       sodipodi:type="inkscape:persp3d" />
    <inkscape:perspective
       id="perspective3687-45"
       inkscape:persp3d-origin="0.5 : 0.33333333 : 1"
       inkscape:vp_z="1 : 0.5 : 1"
       inkscape:vp_y="0 : 1000 : 0"
       inkscape:vp_x="0 : 0.5 : 1"
       sodipodi:type="inkscape:persp3d" />
    <inkscape:perspective
       id="perspective3687-35"
       inkscape:persp3d-origin="0.5 : 0.33333333 : 1"
       inkscape:vp_z="1 : 0.5 : 1"
       inkscape:vp_y="0 : 1000 : 0"
       inkscape:vp_x="0 : 0.5 : 1"
       sodipodi:type="inkscape:persp3d" />
    <inkscape:perspective
       id="perspective3687-79"
       inkscape:persp3d-origin="0.5 : 0.33333333 : 1"
       inkscape:vp_z="1 : 0.5 : 1"
       inkscape:vp_y="0 : 1000 : 0"
       inkscape:vp_x="0 : 0.5 : 1"
       sodipodi:type="inkscape:persp3d" />
    <inkscape:perspective
       id="perspective3687-77"
       inkscape:persp3d-origin="0.5 : 0.33333333 : 1"
       inkscape:vp_z="1 : 0.5 : 1"
       inkscape:vp_y="0 : 1000 : 0"
       inkscape:vp_x="0 : 0.5 : 1"
       sodipodi:type="inkscape:persp3d" />
    <inkscape:perspective
       id="perspective3687-2"
       inkscape:persp3d-origin="0.5 : 0.33333333 : 1"
       inkscape:vp_z="1 : 0.5 : 1"
       inkscape:vp_y="0 : 1000 : 0"
       inkscape:vp_x="0 : 0.5 : 1"
       sodipodi:type="inkscape:persp3d" />
    <inkscape:perspective
       id="perspective3687-21"
       inkscape:persp3d-origin="0.5 : 0.33333333 : 1"
       inkscape:vp_z="1 : 0.5 : 1"
       inkscape:vp_y="0 : 1000 : 0"
       inkscape:vp_x="0 : 0.5 : 1"
       sodipodi:type="inkscape:persp3d" />
    <inkscape:perspective
       id="perspective3687-78"
       inkscape:persp3d-origin="0.5 : 0.33333333 : 1"
       inkscape:vp_z="1 : 0.5 : 1"
       inkscape:vp_y="0 : 1000 : 0"
       inkscape:vp_x="0 : 0.5 : 1"
       sodipodi:type="inkscape:persp3d" />
    <inkscape:perspective
       id="perspective3687-32"
       inkscape:persp3d-origin="0.5 : 0.33333333 : 1"
       inkscape:vp_z="1 : 0.5 : 1"
       inkscape:vp_y="0 : 1000 : 0"
       inkscape:vp_x="0 : 0.5 : 1"
       sodipodi:type="inkscape:persp3d" />
    <inkscape:perspective
       id="perspective3687-327"
       inkscape:persp3d-origin="0.5 : 0.33333333 : 1"
       inkscape:vp_z="1 : 0.5 : 1"
       inkscape:vp_y="0 : 1000 : 0"
       inkscape:vp_x="0 : 0.5 : 1"
       sodipodi:type="inkscape:persp3d" />
    <inkscape:perspective
       id="perspective3687-09"
       inkscape:persp3d-origin="0.5 : 0.33333333 : 1"
       inkscape:vp_z="1 : 0.5 : 1"
       inkscape:vp_y="0 : 1000 : 0"
       inkscape:vp_x="0 : 0.5 : 1"
       sodipodi:type="inkscape:persp3d" />
    <inkscape:perspective
       id="perspective3687-47"
       inkscape:persp3d-origin="0.5 : 0.33333333 : 1"
       inkscape:vp_z="1 : 0.5 : 1"
       inkscape:vp_y="0 : 1000 : 0"
       inkscape:vp_x="0 : 0.5 : 1"
       sodipodi:type="inkscape:persp3d" />
    <inkscape:perspective
       id="perspective3687-041"
       inkscape:persp3d-origin="0.5 : 0.33333333 : 1"
       inkscape:vp_z="1 : 0.5 : 1"
       inkscape:vp_y="0 : 1000 : 0"
       inkscape:vp_x="0 : 0.5 : 1"
       sodipodi:type="inkscape:persp3d" />
    <inkscape:perspective
       id="perspective3687-5"
       inkscape:persp3d-origin="0.5 : 0.33333333 : 1"
       inkscape:vp_z="1 : 0.5 : 1"
       inkscape:vp_y="0 : 1000 : 0"
       inkscape:vp_x="0 : 0.5 : 1"
       sodipodi:type="inkscape:persp3d" />
    <inkscape:perspective
       id="perspective3687-99"
       inkscape:persp3d-origin="0.5 : 0.33333333 : 1"
       inkscape:vp_z="1 : 0.5 : 1"
       inkscape:vp_y="0 : 1000 : 0"
       inkscape:vp_x="0 : 0.5 : 1"
       sodipodi:type="inkscape:persp3d" />
    <inkscape:perspective
       id="perspective3687-8"
       inkscape:persp3d-origin="0.5 : 0.33333333 : 1"
       inkscape:vp_z="1 : 0.5 : 1"
       inkscape:vp_y="0 : 1000 : 0"
       inkscape:vp_x="0 : 0.5 : 1"
       sodipodi:type="inkscape:persp3d" />
    <inkscape:perspective
       id="perspective3687-08"
       inkscape:persp3d-origin="0.5 : 0.33333333 : 1"
       inkscape:vp_z="1 : 0.5 : 1"
       inkscape:vp_y="0 : 1000 : 0"
       inkscape:vp_x="0 : 0.5 : 1"
       sodipodi:type="inkscape:persp3d" />
    <inkscape:perspective
       id="perspective3687-22"
       inkscape:persp3d-origin="0.5 : 0.33333333 : 1"
       inkscape:vp_z="1 : 0.5 : 1"
       inkscape:vp_y="0 : 1000 : 0"
       inkscape:vp_x="0 : 0.5 : 1"
       sodipodi:type="inkscape:persp3d" />
    <inkscape:perspective
       id="perspective3687-76"
       inkscape:persp3d-origin="0.5 : 0.33333333 : 1"
       inkscape:vp_z="1 : 0.5 : 1"
       inkscape:vp_y="0 : 1000 : 0"
       inkscape:vp_x="0 : 0.5 : 1"
       sodipodi:type="inkscape:persp3d" />
  </defs>
  <sodipodi:namedview
     pagecolor="#ffffff"
     bordercolor="#666666"
     borderopacity="1"
     objecttolerance="10"
     gridtolerance="10"
     guidetolerance="10"
     inkscape:pageopacity="0"
     inkscape:pageshadow="2"
     inkscape:window-width="1366"
     inkscape:window-height="675"
     id="namedview4"
     showgrid="false"
     inkscape:zoom="3.6869565"
     inkscape:cx="58"
     inkscape:cy="56.150239"
     inkscape:window-x="0"
     inkscape:window-y="24"
     inkscape:window-maximized="1"
     inkscape:current-layer="svg2"
     inkscape:snap-object-midpoints="false"
     inkscape:snap-center="false" />
  <g
     id="g4304">
    <path
       sodipodi:nodetypes="ccsccc"
       d="M 58.058667,7.8787723 C 62.039039,21.653684 68.970534,16.887418 70.451174,4.3879259 74.376951,28.058868 61.830851,24.252088 59.018651,20.882178 c 0,0 -4.014475,8.378031 -10.472543,7.330779 -6.458066,-1.047255 -2.618134,-15.010644 -2.618134,-15.010644 1.112184,14.568343 10.547497,7.295967 12.130693,-5.3235407 z"
       style="fill:#000000;fill-opacity:1;stroke:none"
       id="path4177" />
    <g
       id="g4272">
      <path
         sodipodi:type="arc"
         style="fill:#000000;fill-opacity:1;stroke:none"
         sodipodi:cx="38.958092"
         sodipodi:cy="51.048138"
         sodipodi:rx="1.1834171"
         sodipodi:ry="1.1834171"
         d="m 40.141509,51.048138 a 1.1834171,1.1834171 0 1 1 -2.366834,0 1.1834171,1.1834171 0 1 1 2.366834,0 z"
         id="path3655"
         transform="matrix(1.7433991,0,0,1.7433991,-42.033577,-25.0059)" />
      <path
         sodipodi:type="arc"
         style="fill:#000000;fill-opacity:1;stroke:none"
         sodipodi:cx="38.958092"
         sodipodi:cy="51.048138"
         sodipodi:rx="1.1834171"
         sodipodi:ry="1.1834171"
         d="m 40.141509,51.048138 a 1.1834171,1.1834171 0 1 1 -2.366834,0 1.1834171,1.1834171 0 1 1 2.366834,0 z"
         transform="matrix(1.7433991,0,0,1.7433991,-38.910722,-31.348678)"
         id="path3655-8" />
      <path
         sodipodi:type="arc"
         style="fill:#000000;fill-opacity:1;stroke:none"
         sodipodi:cx="38.958092"
         sodipodi:cy="51.048138"
         sodipodi:rx="1.1834171"
         sodipodi:ry="1.1834171"
         d="m 40.141509,51.048138 a 1.1834171,1.1834171 0 1 1 -2.366834,0 1.1834171,1.1834171 0 1 1 2.366834,0 z"
         transform="matrix(1.7433991,0,0,1.7433991,-43.52936,-11.286672)"
         id="path3655-3" />
      <path
         sodipodi:type="arc"
         style="fill:#000000;fill-opacity:1;stroke:none"
         sodipodi:cx="38.958092"
         sodipodi:cy="51.048138"
         sodipodi:rx="1.1834171"
         sodipodi:ry="1.1834171"
         d="m 40.141509,51.048138 a 1.1834171,1.1834171 0 1 1 -2.366834,0 1.1834171,1.1834171 0 1 1 2.366834,0 z"
         transform="matrix(1.7433991,0,0,1.7433991,-42.082475,-3.7668362)"
         id="path3655-4" />
      <path
         sodipodi:type="arc"
         style="fill:#000000;fill-opacity:1;stroke:none"
         sodipodi:cx="38.958092"
         sodipodi:cy="51.048138"
         sodipodi:rx="1.1834171"
         sodipodi:ry="1.1834171"
         d="m 40.141509,51.048138 a 1.1834171,1.1834171 0 1 1 -2.366834,0 1.1834171,1.1834171 0 1 1 2.366834,0 z"
         transform="matrix(1.7433991,0,0,1.7433991,-39.086355,2.7629856)"
         id="path3655-45" />
      <path
         sodipodi:type="arc"
         style="fill:#000000;fill-opacity:1;stroke:none"
         sodipodi:cx="38.958092"
         sodipodi:cy="51.048138"
         sodipodi:rx="1.1834171"
         sodipodi:ry="1.1834171"
         d="m 40.141509,51.048138 a 1.1834171,1.1834171 0 1 1 -2.366834,0 1.1834171,1.1834171 0 1 1 2.366834,0 z"
         transform="matrix(1.7433991,0,0,1.7433991,-34.229385,9.0322069)"
         id="path3655-456" />
      <path
         sodipodi:type="arc"
         style="fill:#000000;fill-opacity:1;stroke:none"
         sodipodi:cx="38.958092"
         sodipodi:cy="51.048138"
         sodipodi:rx="1.1834171"
         sodipodi:ry="1.1834171"
         d="m 40.141509,51.048138 a 1.1834171,1.1834171 0 1 1 -2.366834,0 1.1834171,1.1834171 0 1 1 2.366834,0 z"
         transform="matrix(1.7433991,0,0,1.7433991,-28.261335,13.907246)"
         id="path3655-0" />
      <path
         sodipodi:type="arc"
         style="fill:#000000;fill-opacity:1;stroke:none"
         sodipodi:cx="38.958092"
         sodipodi:cy="51.048138"
         sodipodi:rx="1.1834171"
         sodipodi:ry="1.1834171"
         d="m 40.141509,51.048138 a 1.1834171,1.1834171 0 1 1 -2.366834,0 1.1834171,1.1834171 0 1 1 2.366834,0 z"
         transform="matrix(1.7433991,0,0,1.7433991,-21.588301,17.349193)"
         id="path3655-49" />
      <path
         sodipodi:type="arc"
         style="fill:#000000;fill-opacity:1;stroke:none"
         sodipodi:cx="38.958092"
         sodipodi:cy="51.048138"
         sodipodi:rx="1.1834171"
         sodipodi:ry="1.1834171"
         d="m 40.141509,51.048138 a 1.1834171,1.1834171 0 1 1 -2.366834,0 1.1834171,1.1834171 0 1 1 2.366834,0 z"
         transform="matrix(1.7433991,0,0,1.7433991,-14.410763,19.069468)"
         id="path3655-2" />
      <path
         sodipodi:type="arc"
         style="fill:#000000;fill-opacity:1;stroke:none"
         sodipodi:cx="38.958092"
         sodipodi:cy="51.048138"
         sodipodi:rx="1.1834171"
         sodipodi:ry="1.1834171"
         d="m 40.141509,51.048138 a 1.1834171,1.1834171 0 1 1 -2.366834,0 1.1834171,1.1834171 0 1 1 2.366834,0 z"
         transform="matrix(1.7433991,0,0,1.7433991,-7.3304709,19.551629)"
         id="path3655-30" />
      <path
         sodipodi:type="arc"
         style="fill:#000000;fill-opacity:1;stroke:none"
         sodipodi:cx="38.958092"
         sodipodi:cy="51.048138"
         sodipodi:rx="1.1834171"
         sodipodi:ry="1.1834171"
         d="m 40.141509,51.048138 a 1.1834171,1.1834171 0 1 1 -2.366834,0 1.1834171,1.1834171 0 1 1 2.366834,0 z"
         transform="matrix(1.7433991,0,0,1.7433991,-0.89580097,18.186348)"
         id="path3655-87" />
      <path
         sodipodi:type="arc"
         style="fill:#000000;fill-opacity:1;stroke:none"
         sodipodi:cx="38.958092"
         sodipodi:cy="51.048138"
         sodipodi:rx="1.1834171"
         sodipodi:ry="1.1834171"
         d="m 40.141509,51.048138 a 1.1834171,1.1834171 0 1 1 -2.366834,0 1.1834171,1.1834171 0 1 1 2.366834,0 z"
         transform="matrix(1.7433991,0,0,1.7433991,5.6510305,15.479938)"
         id="path3655-02" />
      <path
         sodipodi:type="arc"
         style="fill:#000000;fill-opacity:1;stroke:none"
         sodipodi:cx="38.958092"
         sodipodi:cy="51.048138"
         sodipodi:rx="1.1834171"
         sodipodi:ry="1.1834171"
         d="m 40.141509,51.048138 a 1.1834171,1.1834171 0 1 1 -2.366834,0 1.1834171,1.1834171 0 1 1 2.366834,0 z"
         transform="matrix(1.7433991,0,0,1.7433991,11.310712,12.055188)"
         id="path3655-9" />
      <path
         sodipodi:type="arc"
         style="fill:#000000;fill-opacity:1;stroke:none"
         sodipodi:cx="38.958092"
         sodipodi:cy="51.048138"
         sodipodi:rx="1.1834171"
         sodipodi:ry="1.1834171"
         d="m 40.141509,51.048138 a 1.1834171,1.1834171 0 1 1 -2.366834,0 1.1834171,1.1834171 0 1 1 2.366834,0 z"
         transform="matrix(1.7433991,0,0,1.7433991,15.972549,7.451589)"
         id="path3655-88" />
      <path
         sodipodi:type="arc"
         style="fill:#000000;fill-opacity:1;stroke:none"
         sodipodi:cx="38.958092"
         sodipodi:cy="51.048138"
         sodipodi:rx="1.1834171"
         sodipodi:ry="1.1834171"
         d="m 40.141509,51.048138 a 1.1834171,1.1834171 0 1 1 -2.366834,0 1.1834171,1.1834171 0 1 1 2.366834,0 z"
         transform="matrix(1.7433991,0,0,1.7433991,19.803108,1.6955285)"
         id="path3655-41" />
      <path
         sodipodi:type="arc"
         style="fill:#000000;fill-opacity:1;stroke:none"
         sodipodi:cx="38.958092"
         sodipodi:cy="51.048138"
         sodipodi:rx="1.1834171"
         sodipodi:ry="1.1834171"
         d="m 40.141509,51.048138 a 1.1834171,1.1834171 0 1 1 -2.366834,0 1.1834171,1.1834171 0 1 1 2.366834,0 z"
         transform="matrix(1.7433991,0,0,1.7433991,22.416642,-4.5155453)"
         id="path3655-09" />
      <path
         sodipodi:type="arc"
         style="fill:#000000;fill-opacity:1;stroke:none"
         sodipodi:cx="38.958092"
         sodipodi:cy="51.048138"
         sodipodi:rx="1.1834171"
         sodipodi:ry="1.1834171"
         d="m 40.141509,51.048138 a 1.1834171,1.1834171 0 1 1 -2.366834,0 1.1834171,1.1834171 0 1 1 2.366834,0 z"
         transform="matrix(1.7433991,0,0,1.7433991,23.690356,-11.025748)"
         id="path3655-23" />
      <path
         sodipodi:type="arc"
         style="fill:#000000;fill-opacity:1;stroke:none"
         sodipodi:cx="38.958092"
         sodipodi:cy="51.048138"
         sodipodi:rx="1.1834171"
         sodipodi:ry="1.1834171"
         d="m 40.141509,51.048138 a 1.1834171,1.1834171 0 1 1 -2.366834,0 1.1834171,1.1834171 0 1 1 2.366834,0 z"
         transform="matrix(1.7433991,0,0,1.7433991,23.646926,-17.886257)"
         id="path3655-27" />
      <path
         sodipodi:type="arc"
         style="fill:#000000;fill-opacity:1;stroke:none"
         sodipodi:cx="38.958092"
         sodipodi:cy="51.048138"
         sodipodi:rx="1.1834171"
         sodipodi:ry="1.1834171"
         d="m 40.141509,51.048138 a 1.1834171,1.1834171 0 1 1 -2.366834,0 1.1834171,1.1834171 0 1 1 2.366834,0 z"
         transform="matrix(1.7433991,0,0,1.7433991,22.204502,-24.683011)"
         id="path3655-7" />
      <path
         sodipodi:type="arc"
         style="fill:#000000;fill-opacity:1;stroke:none"
         sodipodi:cx="38.958092"
         sodipodi:cy="51.048138"
         sodipodi:rx="1.1834171"
         sodipodi:ry="1.1834171"
         d="m 40.141509,51.048138 a 1.1834171,1.1834171 0 1 1 -2.366834,0 1.1834171,1.1834171 0 1 1 2.366834,0 z"
         transform="matrix(1.7433991,0,0,1.7433991,19.39128,-30.82271)"
         id="path3655-1" />
      <path
         sodipodi:type="arc"
         style="fill:#000000;fill-opacity:1;stroke:none"
         sodipodi:cx="38.958092"
         sodipodi:cy="51.048138"
         sodipodi:rx="1.1834171"
         sodipodi:ry="1.1834171"
         d="m 40.141509,51.048138 a 1.1834171,1.1834171 0 1 1 -2.366834,0 1.1834171,1.1834171 0 1 1 2.366834,0 z"
         transform="matrix(1.7433991,0,0,1.7433991,15.700185,-36.161303)"
         id="path3655-05" />
      <path
         sodipodi:type="arc"
         style="fill:#000000;fill-opacity:1;stroke:none"
         sodipodi:cx="38.958092"
         sodipodi:cy="51.048138"
         sodipodi:rx="1.1834171"
         sodipodi:ry="1.1834171"
         d="m 40.141509,51.048138 a 1.1834171,1.1834171 0 1 1 -2.366834,0 1.1834171,1.1834171 0 1 1 2.366834,0 z"
         transform="matrix(1.7433991,0,0,1.7433991,10.388109,-41.142774)"
         id="path3655-35" />
      <path
         sodipodi:type="arc"
         style="fill:#000000;fill-opacity:1;stroke:none"
         sodipodi:cx="38.958092"
         sodipodi:cy="51.048138"
         sodipodi:rx="1.1834171"
         sodipodi:ry="1.1834171"
         d="m 40.141509,51.048138 a 1.1834171,1.1834171 0 1 1 -2.366834,0 1.1834171,1.1834171 0 1 1 2.366834,0 z"
         transform="matrix(1.7433991,0,0,1.7433991,4.5013774,-44.603325)"
         id="path3655-83" />
      <path
         sodipodi:type="arc"
         style="fill:#000000;fill-opacity:1;stroke:none"
         sodipodi:cx="38.958092"
         sodipodi:cy="51.048138"
         sodipodi:rx="1.1834171"
         sodipodi:ry="1.1834171"
         d="m 40.141509,51.048138 a 1.1834171,1.1834171 0 1 1 -2.366834,0 1.1834171,1.1834171 0 1 1 2.366834,0 z"
         transform="matrix(1.7433991,0,0,1.7433991,-2.2450018,-47.040531)"
         id="path3655-79" />
      <path
         sodipodi:type="arc"
         style="fill:#000000;fill-opacity:1;stroke:none"
         sodipodi:cx="38.958092"
         sodipodi:cy="51.048138"
         sodipodi:rx="1.1834171"
         sodipodi:ry="1.1834171"
         d="m 40.141509,51.048138 a 1.1834171,1.1834171 0 1 1 -2.366834,0 1.1834171,1.1834171 0 1 1 2.366834,0 z"
         transform="matrix(1.7433991,0,0,1.7433991,-9.2747775,-47.867101)"
         id="path3655-32" />
      <path
         sodipodi:type="arc"
         style="fill:#000000;fill-opacity:1;stroke:none"
         sodipodi:cx="38.958092"
         sodipodi:cy="51.048138"
         sodipodi:rx="1.1834171"
         sodipodi:ry="1.1834171"
         d="m 40.141509,51.048138 a 1.1834171,1.1834171 0 1 1 -2.366834,0 1.1834171,1.1834171 0 1 1 2.366834,0 z"
         transform="matrix(1.7433991,0,0,1.7433991,-16.090427,-47.377453)"
         id="path3655-80" />
      <path
         sodipodi:type="arc"
         style="fill:#000000;fill-opacity:1;stroke:none"
         sodipodi:cx="38.958092"
         sodipodi:cy="51.048138"
         sodipodi:rx="1.1834171"
         sodipodi:ry="1.1834171"
         d="m 40.141509,51.048138 a 1.1834171,1.1834171 0 1 1 -2.366834,0 1.1834171,1.1834171 0 1 1 2.366834,0 z"
         transform="matrix(1.7433991,0,0,1.7433991,-22.684086,-45.34489)"
         id="path3655-97" />
      <path
         sodipodi:type="arc"
         style="fill:#000000;fill-opacity:1;stroke:none"
         sodipodi:cx="38.958092"
         sodipodi:cy="51.048138"
         sodipodi:rx="1.1834171"
         sodipodi:ry="1.1834171"
         d="m 40.141509,51.048138 a 1.1834171,1.1834171 0 1 1 -2.366834,0 1.1834171,1.1834171 0 1 1 2.366834,0 z"
         transform="matrix(1.7433991,0,0,1.7433991,-29.274172,-41.846957)"
         id="path3655-86" />
      <path
         sodipodi:type="arc"
         style="fill:#000000;fill-opacity:1;stroke:none"
         sodipodi:cx="38.958092"
         sodipodi:cy="51.048138"
         sodipodi:rx="1.1834171"
         sodipodi:ry="1.1834171"
         d="m 40.141509,51.048138 a 1.1834171,1.1834171 0 1 1 -2.366834,0 1.1834171,1.1834171 0 1 1 2.366834,0 z"
         transform="matrix(1.7433991,0,0,1.7433991,-34.895268,-37.082768)"
         id="path3655-73" />
      <path
         sodipodi:type="arc"
         style="fill:#000000;fill-opacity:1;stroke:none"
         sodipodi:cx="38.958092"
         sodipodi:cy="51.048138"
         sodipodi:rx="1.1834171"
         sodipodi:ry="1.1834171"
         d="m 40.141509,51.048138 a 1.1834171,1.1834171 0 1 1 -2.366834,0 1.1834171,1.1834171 0 1 1 2.366834,0 z"
         transform="matrix(1.7433991,0,0,1.7433991,-43.449089,-18.013065)"
         id="path3655-6" />
    </g>
  </g>
</svg>
